<svg xmlns="http://www.w3.org/2000/svg" version="1.1" xmlns:xlink="http://www.w3.org/1999/xlink" width="1000" height="1000"><g clip-path="url(#SvgjsClipPath1490)"><rect width="1000" height="1000" fill="#ffffff"></rect><g transform="matrix(12.32876712328767,0,0,12.32876712328767,50,265.75342465753425)"><svg xmlns="http://www.w3.org/2000/svg" version="1.1" xmlns:xlink="http://www.w3.org/1999/xlink" width="73" height="38"><svg width="73" height="38" viewBox="0 0 73 38" fill="none" xmlns="http://www.w3.org/2000/svg">
<path d="M54.4741 13.51H17.6368C17.1124 13.51 16.6874 13.8906 16.6874 14.36V23.27C16.6874 23.7394 17.1124 24.12 17.6368 24.12H54.4741C54.9984 24.12 55.4235 23.7394 55.4235 23.27V14.36C55.4235 13.8906 54.9984 13.51 54.4741 13.51Z" fill="#93422E"></path>
<path d="M37.7867 27.05H0.949422C0.425074 27.05 0 27.4306 0 27.9V36.81C0 37.2794 0.425074 37.66 0.949422 37.66H37.7867C38.3111 37.66 38.7361 37.2794 38.7361 36.81V27.9C38.7361 27.4306 38.3111 27.05 37.7867 27.05Z" fill="#93422E"></path>
<path d="M71.0721 0H34.2348C33.7104 0 33.2854 0.380556 33.2854 0.849998V9.76C33.2854 10.2294 33.7104 10.61 34.2348 10.61H71.0721C71.5964 10.61 72.0215 10.2294 72.0215 9.76V0.849998C72.0215 0.380556 71.5964 0 71.0721 0Z" fill="#93422E"></path>
<path d="M53.2343 26.99H44.1311C42.9096 26.99 41.9195 27.8765 41.9195 28.97V35.62C41.9195 36.7135 42.9096 37.6 44.1311 37.6H53.2343C54.4557 37.6 55.4458 36.7135 55.4458 35.62V28.97C55.4458 27.8765 54.4557 26.99 53.2343 26.99Z" fill="#B4836E"></path>
<path d="M69.9216 13.47H60.8184C59.597 13.47 58.6068 14.3565 58.6068 15.45V22.1C58.6068 23.1935 59.597 24.08 60.8184 24.08H69.9216C71.143 24.08 72.1332 23.1935 72.1332 22.1V15.45C72.1332 14.3565 71.143 13.47 69.9216 13.47Z" fill="#B4836E"></path>
<path d="M70.0556 27.04H60.9524C59.731 27.04 58.7408 27.9265 58.7408 29.02V35.67C58.7408 36.7635 59.731 37.65 60.9524 37.65H70.0556C71.2771 37.65 72.2672 36.7635 72.2672 35.67V29.02C72.2672 27.9265 71.2771 27.04 70.0556 27.04Z" fill="#B4836E"></path>
</svg></svg></g></g><defs><clipPath id="SvgjsClipPath1490"><rect width="1000" height="1000" x="0" y="0" rx="200" ry="200"></rect></clipPath></defs></svg>